# xmcd
#
# Track frame offsets:
#	150
#	16617
#	34025
#	46940
#	62847
#	78177
#	92242
#	108320
#	125257
#	139522
#
# Disc length: 2075 seconds
#
# Revision: 2
# Processed by: cddbd v1.5.2PL0 Copyright (c) Steve Scherf et al.
# Submitted via: EasyCDDAExtractor 9.0.0.1
#
DISCID=7108190a
DTITLE=David Slater - Exchange of Hearts
DYEAR=1988
DGENRE=Country
TTITLE0=We Were Meant to Be Lovers
TTITLE1=Paintin' the Town Blue
TTITLE2=The Other Guy
TTITLE3=I`m Still Your Fool
TTITLE4=How to Survive a Heartache
TTITLE5=I`ve Met My Match
TTITLE6=Exchange of Hearts
TTITLE7=Cry Baby
TTITLE8=Rest Assured
TTITLE9=Losin' My Louisiana Blues
EXTD=
EXTT0=
EXTT1=
EXTT2=
EXTT3=
EXTT4=
EXTT5=
EXTT6=
EXTT7=
EXTT8=
EXTT9=
PLAYORDER=
